<?xml version="1.0" encoding="UTF-8"?>
<svg id="Capa_1" data-name="Capa 1" xmlns="http://www.w3.org/2000/svg" viewBox="0 0 336.87 727.83">
  <defs>
    <style>
      .cls-1 {
        fill: #1e1e1c;
      }
    </style>
  </defs>
  <path class="cls-1" d="M231.1,81.12C200.82,44.88,174.74,8.07,169.42.42c-.56-.57-1.4-.57-1.96,0-5.33,7.65-31.4,44.45-61.68,80.7-259.89,334.39,40.93,560.06,40.93,560.06l2.52,1.7c2.25,34.83,7.86,84.95,7.86,84.95h22.43s5.61-49.84,7.85-84.95l2.52-1.98c.28.28,301.11-225.39,41.21-559.78ZM168.3,636.38s-13.46-11.61-17.1-17.55v-.57l16.26-364.13c0-1.13,1.68-1.13,1.68,0l16.26,364.13v.57c-3.64,5.94-17.1,17.55-17.1,17.55Z"/>
</svg>