<?xml version="1.0" standalone="no"?>
<!DOCTYPE svg PUBLIC "-//W3C//DTD SVG 20010904//EN"
 "http://www.w3.org/TR/2001/REC-SVG-20010904/DTD/svg10.dtd">
<svg version="1.0" xmlns="http://www.w3.org/2000/svg"
 width="200.000000pt" height="200.000000pt" viewBox="0 0 200.000000 200.000000"
 preserveAspectRatio="xMidYMid meet">

<g transform="translate(0.000000,200.000000) scale(0.100000,-0.100000)"
fill="#000000" stroke="none">
<path d="M922 1655 c-8 -9 -31 -15 -62 -15 l-49 0 -3 -107 -3 -108 -28 -3
c-17 -2 -37 4 -47 13 -22 20 -75 13 -84 -11 -8 -20 3 -44 20 -44 10 0 14 -13
14 -45 0 -32 -4 -45 -14 -45 -8 0 -16 -7 -20 -15 -8 -21 3 -45 20 -45 20 0 19
-74 -1 -90 -8 -7 -15 -23 -15 -35 0 -31 53 -45 79 -21 10 9 35 16 59 16 23 0
42 5 42 10 0 6 -19 10 -43 10 -54 0 -67 13 -67 65 0 23 5 46 12 53 7 7 38 12
70 12 32 0 58 4 58 10 0 6 -26 10 -58 10 -32 0 -63 5 -70 12 -7 7 -12 30 -12
53 0 52 13 65 67 65 l42 0 3 108 3 107 38 3 c51 4 67 -14 67 -78 0 -44 3 -51
18 -48 13 2 18 15 20 53 2 28 10 58 19 67 15 17 15 20 -2 38 -21 23 -55 25
-73 5z m58 -25 c0 -13 -7 -20 -19 -20 -22 0 -35 15 -26 30 12 19 45 11 45 -10z
m-260 -215 c0 -9 -7 -18 -16 -22 -18 -7 -39 11 -30 26 11 17 46 13 46 -4z m0
-155 c0 -13 -7 -20 -19 -20 -22 0 -35 15 -26 30 12 19 45 11 45 -10z m0 -150
c0 -13 -7 -20 -19 -20 -22 0 -35 15 -26 30 12 19 45 11 45 -10z"/>
<path d="M240 610 l0 -200 30 0 30 0 0 140 c0 78 4 140 9 140 5 0 58 -63 118
-140 99 -129 111 -140 141 -140 l32 0 0 200 0 200 -30 0 -29 0 -3 -148 -3
-149 -115 149 c-106 137 -117 148 -147 148 l-33 0 0 -200z"/>
<path d="M1070 610 l0 -203 113 5 c96 3 119 8 157 29 125 68 121 273 -5 339
-42 21 -66 25 -157 29 l-108 3 0 -202z m232 120 c38 -18 58 -52 64 -108 11
-97 -49 -152 -163 -152 l-63 0 0 141 0 142 68 -5 c37 -3 79 -11 94 -18z"/>
<path d="M1520 610 l0 -200 110 0 c73 0 122 5 145 14 36 15 65 59 65 100 0 29
-45 86 -67 86 -12 0 -9 6 9 23 34 32 42 60 28 103 -18 54 -69 74 -192 74 l-98
0 0 -200z m208 124 c12 -8 22 -26 22 -39 0 -36 -36 -55 -102 -55 l-58 0 0 55
0 55 58 0 c36 0 66 -6 80 -16z m23 -164 c13 -7 19 -21 19 -45 0 -45 -20 -55
-109 -55 l-71 0 0 55 0 55 71 0 c39 0 79 -5 90 -10z"/>
<path d="M807 713 c-15 -3 -45 -21 -66 -41 -30 -29 -41 -47 -46 -83 -9 -61 20
-130 67 -159 45 -27 131 -27 177 1 32 19 32 21 16 39 -16 17 -20 18 -38 5 -12
-8 -41 -15 -65 -15 -36 0 -49 6 -75 33 l-32 32 124 3 123 3 -4 54 c-5 54 -28
94 -68 115 -22 11 -80 18 -113 13z m103 -73 c11 -11 20 -29 20 -40 0 -19 -7
-20 -91 -20 -89 0 -90 0 -84 23 17 55 113 79 155 37z"/>
</g>
</svg>
