<?xml version="1.0" encoding="UTF-8"?>
<svg id="Capa_1" data-name="Capa 1" xmlns="http://www.w3.org/2000/svg" viewBox="0 0 479.66 535.38">
  <path d="M115.05,0l6.32.87c12.74,2.2,24.8,7.97,34.45,16.51.85.76,4.18,4.51,4.84,4.58,10.83-3.28,21.81-6.17,33.01-8.03,68.92-11.42,140.38,9.84,192.31,55.82,73.26,17.57,113.92,98.94,83.51,168.55-1.09,2.49-5.1,9.15-5.48,10.99-.3,1.49.05,3.59-.05,5.18-1.41,22.43-5.36,44.43-12.81,65.6-25.82,73.38-89,129.34-164.39,147.95-4.41,10.92-9.84,21.42-17.15,30.68-48.67,61.66-150.65,42.06-173.71-32.71-3.9-12.63-4.95-25.42-4.77-38.62-43.05-32.38-73.23-79.37-85.2-132-3.09-13.59-5.43-28.79-5.61-42.75,0-.44.17-1.16-.27-1.43.13-5.48-.18-10.99,0-16.47.24-7.17.95-14.86,1.86-22.05,5.29-41.64,22.07-81.54,48-114.31-10.45-21.09-9.38-46.74,3.08-66.72C64.06,13.92,84,1.68,104.97.24l.42-.24h9.67ZM361.24,66.39c-45.34-33.56-103.65-48.5-159.78-40.74-11.04,1.53-21.84,4.17-32.58,7.02-.27.28,2.31,4.82,2.66,5.57,29.59,63.32-43.12,124.3-98.92,85.6-5.6-3.88-10.59-8.58-15.08-13.69l-.78.27C-.41,185.73-1.75,292.87,52.9,369.96c9.7,13.69,25.81,32.42,39.44,42.11.23.17,1.09.88,1.28.68,8.66-35.29,33.59-64.87,69.2-74.68,66.74-18.39,133.76,32.85,128.91,102.8l-1.32,12.93c55.64-15.31,104.72-53.39,133.07-103.6,13.99-24.78,22.99-52.34,26.35-80.68-.61-.17-.44.16-.6.33-60.54,68.79-172.89,48.93-206.33-36.08-20.72-52.67-2.85-111.33,42.45-144.31,21.87-15.92,48.69-24.12,75.87-23.05Z"/>
  <circle cx="258.16" cy="69.9" r="18.16"/>
  <circle cx="210.65" cy="53.22" r="18.16"/>
  <circle cx="353.6" cy="345.12" r="18.16"/>
  <circle cx="320.71" cy="384.03" r="18.15"/>
  <g>
    <circle cx="102.11" cy="270.94" r="18.16"/>
    <circle cx="88.03" cy="168.7" r="18.16"/>
    <circle cx="91.03" cy="218.33" r="18.16"/>
    <circle cx="126.96" cy="318.08" r="18.16"/>
  </g>
</svg>