<?xml version="1.0" encoding="UTF-8"?>
<svg id="Capa_1" data-name="Capa 1" xmlns="http://www.w3.org/2000/svg" viewBox="0 0 687.7 223.87">
  <defs>
    <style>
      .cls-1 {
        fill: #fff;
      }
    </style>
  </defs>
  <path class="cls-1" d="M138.96.02l.02,162.97c-.37,26.16-9.47,44.16-38.07,44.15-25.42,0-39.17-11.82-40.85-37.49l.05-167.72-.86-1.91H.94C-.18.68-.32,3.53.64,4.21c.84.6,7.98,1.27,10.17,2.04,6.52,2.29,8.66,7.01,9.22,13.55,2.14,46.9-2.6,95.99.05,142.64,2.82,49.61,42.54,63.13,86.42,60.8,41.46-2.21,57.78-23.37,59.7-63.57V1.94s-.86-1.91-.86-1.91h-26.38Z"/>
  <path class="cls-1" d="M228.93.02v4.44c12.12.88,19.06,4.39,16.97,17.79l-74.73,201.51h25.27l36.09-98.28,53.35-.58,36.63,98.86h36.93L275.03.02h-46.1ZM236.71,108.84l21.94-60.52,22.49,60.52h-44.43Z"/>
  <path class="cls-1" d="M422.51,0l-64.18.02v4.45c9.96.69,18.4,2.85,19.43,14.16-.35,47.36.25,94.82.59,142.1.15,21.01-.16,42.04-.03,63.04,52.74-.48,124.77,7.13,150.61-50.71,14.01-31.35,15.08-88.47,1.67-120.12C511.71,8.33,466.13,1.35,422.51,0ZM481.65,182.97c-13.09,20.12-40.33,28.57-63.27,22.98l-.06-187.33c0-.8.34-.95.95-1.27.93-.49,7.33-1.17,8.78-1.21,40.16-1.25,62.37,19.78,68.98,58.17,5.85,34.01,3.87,79.07-15.38,108.67Z"/>
  <path class="cls-1" d="M614.38,18.62c.92-.37,3.28-1.2,5.27-1.39h67.2l.83-.83V.02h-139.41v4.44c6.54.45,15.15,1.59,18.05,8.33.3.69,1.39,4.26,1.39,4.72v206.25h119.97v-19.43h-59.15c-1.86,0-7.38-1.56-9.31-2.35-9.65-3.97-10.52-13.59-10.99-22.88-1-19.85.62-40.58.05-60.56-.09-3.04-.03-6.49.02-9.69h59.66l.83-.83v-17.49h-60.26l-.83-.83v-56.07c0-.18,0-1.09.05-1.8.48-5.45.36-10.67,6.61-13.19Z"/>
</svg>